# xmcd
#
# Track frame offsets:
#	150
#	27178
#	45959
#	64249
#	79093
#	96172
#	115190
#	132972
#	150228
#	165207
#
# Disc length: 2399 seconds
#
# Revision: 0
# Processed by: cddbd v1.5.2PL0 Copyright (c) Steve Scherf et al.
# Submitted via: EasyCDDAExtractor 12.0.7.1
#
DISCID=6a095d0a
DTITLE=Divine Retreat Centre - Power From Above
DYEAR=1900
DGENRE=Gospel
TTITLE0=Power From Above
TTITLE1=Come And See
TTITLE2=With Thy Blood
TTITLE3=There's A Famine
TTITLE4=Here I Am
TTITLE5=If You Believe
TTITLE6=No room
TTITLE7=Look To him
TTITLE8=With The Lord
TTITLE9=Who Is This
EXTD=
EXTT0=
EXTT1=
EXTT2=
EXTT3=
EXTT4=
EXTT5=
EXTT6=
EXTT7=
EXTT8=
EXTT9=
PLAYORDER=
